<svg width="160" height="40" viewBox="0 0 160 40" fill="none" xmlns="http://www.w3.org/2000/svg">
<path d="M90.0635 10.0067H87.6172V30.2087H90.0635V10.0067Z" fill="#FCDD82"/>
<path d="M94.413 10.0067V30.2087H96.7015V14.8599H96.8988L103.212 30.2087H105.421L111.735 14.8599H111.932V30.2087H114.22V10.0067H111.301L104.435 26.7759H104.198L97.3328 10.0067H94.413Z" fill="#FCDD82"/>
<path d="M118.57 10.0067V30.2087H120.858V14.8599H121.056L127.369 30.2087H129.578L135.892 14.8599H136.089V30.2087H138.377V10.0067H135.458L128.592 26.7759H128.355L121.49 10.0067H118.57Z" fill="#FCDD82"/>
<path d="M153.775 15.0572H156.142C156.034 12.0091 153.222 9.73047 149.316 9.73047C145.449 9.73047 142.411 11.9795 142.411 15.3728C142.411 18.0954 144.384 19.7131 147.541 20.6206L150.026 21.3308C152.157 21.9227 154.051 22.6724 154.051 24.6847C154.051 26.8943 151.92 28.3542 149.119 28.3542C146.712 28.3542 144.581 27.2889 144.384 25.0004H141.859C142.095 28.3148 144.779 30.5638 149.119 30.5638C153.775 30.5638 156.418 27.9991 156.418 24.7242C156.418 20.9363 152.828 19.7131 150.737 19.1607L148.685 18.6083C147.185 18.2137 144.779 17.4246 144.779 15.2545C144.779 13.3211 146.554 11.9006 149.237 11.9006C151.684 11.9006 153.538 13.0646 153.775 15.0572Z" fill="#FCDD82"/>
<path fill-rule="evenodd" clip-rule="evenodd" d="M3.93364 3.33333H70.2236V36.6667H3.93364V3.33333ZM0.619141 40V0H73.5381V40H0.619141ZM38.9488 21.8079H33.9848L37.0535 18.5704H42.6943V27.3641C41.882 27.8016 40.8892 28.1516 39.7611 28.4141C38.6329 28.6766 37.4145 28.8079 36.1058 28.8079C34.752 28.8079 33.4884 28.6329 32.3151 28.1954C31.1418 27.7579 30.149 27.1891 29.3367 26.4016C28.5244 25.6579 27.8475 24.7391 27.3963 23.6454C26.8999 22.5516 26.6742 21.3704 26.6742 20.0579C26.6742 18.7016 26.945 17.5204 27.3963 16.4266C27.8927 15.3329 28.5244 14.4141 29.3819 13.6704C30.1941 12.9266 31.1869 12.3141 32.3151 11.9204C33.4433 11.5266 34.6617 11.3079 35.9704 11.3079C37.3242 11.3079 38.5878 11.5266 39.7611 11.8329C40.8441 12.1829 41.7015 12.6641 42.4236 13.2766L39.6257 15.9891C39.2647 15.6829 38.8585 15.4204 38.3621 15.2016C37.6852 14.8954 36.9632 14.7641 36.1058 14.7641C35.3838 14.7641 34.752 14.8954 34.1202 15.1579C33.5335 15.4204 32.992 15.7704 32.5407 16.2516C32.0895 16.7329 31.7736 17.2579 31.5028 17.9141C31.2772 18.5704 31.1418 19.2704 31.1418 20.0141C31.1418 20.7579 31.2321 21.4579 31.4577 22.1141C31.6833 22.7704 31.9992 23.2954 32.4505 23.7766C32.8566 24.2579 33.4433 24.6079 34.0751 24.8704C34.752 25.1329 35.474 25.2641 36.3314 25.2641C36.8278 25.2641 37.2791 25.2641 37.7304 25.1766C38.1816 25.0891 38.5878 25.0016 38.9488 24.8266V21.8079ZM51.2145 11.8635L44.0753 28.5301H48.5654L49.8226 25.2407H56.423L57.77 28.5301H62.305L55.2107 11.8635H51.2145ZM50.99 22.0389L53.1453 16.3372L55.2556 22.0389H50.99ZM17.6564 14.983C17.885 14.8517 18.1593 14.7642 18.4336 14.7205L18.4336 14.7205C18.7079 14.6767 18.9822 14.633 19.3022 14.633C19.8508 14.633 20.3994 14.7642 20.9937 15.0267C21.5881 15.2892 22.0452 15.6392 22.411 16.0767L25.0169 13.3642C24.2397 12.708 23.371 12.183 22.3195 11.833C21.3138 11.483 20.308 11.308 19.3022 11.308C18.4793 11.308 17.6564 11.3955 16.8792 11.6142C16.102 11.833 15.3705 12.1392 14.7305 12.533C14.1361 12.9705 13.5875 13.4955 13.2218 14.1955C12.8103 14.8517 12.6275 15.6392 12.6275 16.558C12.6275 17.3017 12.7646 17.958 12.9932 18.483C13.2675 19.008 13.5875 19.4455 13.999 19.8392C14.4104 20.1892 14.9133 20.4955 15.4162 20.758C15.9648 20.9767 16.5134 21.1955 17.0621 21.3705C17.3592 21.458 17.6335 21.5455 17.8907 21.6275C18.1478 21.7095 18.3879 21.7861 18.6164 21.8517C19.0736 21.983 19.4393 22.158 19.7594 22.333C20.0794 22.508 20.308 22.7267 20.4451 22.9455C20.628 23.1642 20.6737 23.4267 20.6737 23.733C20.6737 24.083 20.628 24.3455 20.4908 24.5642C20.3537 24.783 20.1708 25.0017 19.9422 25.133C19.7137 25.2642 19.4851 25.3955 19.165 25.4392C18.8907 25.483 18.5707 25.5267 18.2507 25.5267C17.5649 25.5267 16.8792 25.3517 16.1934 25.0017C15.5077 24.6517 14.9591 24.258 14.5019 23.733L11.7588 26.4017C12.536 27.1892 13.4961 27.758 14.639 28.1955C15.782 28.633 17.0163 28.808 18.2507 28.808C19.1193 28.808 19.9422 28.7205 20.7194 28.458C21.4966 28.1955 22.2281 27.8892 22.8681 27.4517C23.5082 27.0142 23.9654 26.4017 24.3311 25.7455C24.6968 25.0455 24.8797 24.2142 24.8797 23.2517C24.8797 22.4205 24.6968 21.7205 24.3768 21.1517C24.0111 20.583 23.5996 20.1455 23.0967 19.7517C22.5938 19.358 21.9995 19.0517 21.3595 18.833C21.1889 18.7747 21.0215 18.7164 20.8565 18.6589L20.8559 18.6587C20.4022 18.5006 19.9665 18.3488 19.5308 18.2205C19.3882 18.175 19.251 18.1295 19.1194 18.0858L19.1193 18.0858C18.8712 18.0035 18.6426 17.9276 18.4336 17.8705C18.1135 17.7392 17.8392 17.608 17.6107 17.4767C17.3821 17.3455 17.1992 17.1705 17.0621 16.9955C16.9249 16.8205 16.8792 16.558 16.8792 16.2955C16.8792 15.9455 16.9706 15.683 17.1078 15.4642C17.2449 15.2892 17.4278 15.1142 17.6564 14.983Z" fill="#FCDD82"/>
</svg>
