<svg width="50" height="66" viewBox="0 0 50 66" fill="none" xmlns="http://www.w3.org/2000/svg">
<path d="M0 0.5V65.5H50V16.9844L49.2969 16.2031L34.2969 1.20312L33.5156 0.5H0ZM5 5.5H30V20.5H45V60.5H5V5.5ZM35 9.09375L41.4062 15.5H35V9.09375ZM37.7344 28C36.3574 28 35.2344 29.123 35.2344 30.5C35.2344 31.877 36.3574 33 37.7344 33C39.1113 33 40.2344 31.877 40.2344 30.5C40.2344 29.123 39.1113 28 37.7344 28ZM20 31.9844L18.2031 33.7031L8.20312 43.7031L11.7969 47.2969L20 39.0938L25.7031 44.7969L27.5 46.5156L29.2969 44.7969L32.5 41.5938L38.2031 47.2969L41.7969 43.7031L34.2969 36.2031L32.5 34.4844L30.7031 36.2031L27.5 39.4062L21.7969 33.7031L20 31.9844Z" fill="#858585"/>
</svg>
