<svg width="35" height="45" viewBox="0 0 35 45" fill="none" xmlns="http://www.w3.org/2000/svg">
<path d="M0.3125 0.15625V44.8438H34.6875V0.15625H0.3125ZM3.75 3.59375H31.25V41.4062H3.75V3.59375ZM16.4795 12.7783C15.9558 12.7716 15.3448 12.9596 14.9219 13.3154C14.4855 13.6847 14.2908 14.1412 14.1699 14.6045C13.9349 15.531 14.0021 16.4911 14.2236 17.5586C14.4855 18.8074 15.2307 20.3113 15.835 21.748C15.5261 23.0573 15.4456 24.2188 14.9756 25.5615C14.5728 26.7163 14.0558 27.381 13.5791 28.4082C12.4982 28.8177 11.2091 29.0594 10.3564 29.5898C9.43665 30.1605 8.63098 30.7916 8.1543 31.6846C7.67761 32.5775 7.73132 33.8397 8.36914 34.7461C8.68469 35.2228 9.10095 35.5988 9.6582 35.8203C10.2155 36.0419 10.8197 36.0486 11.3232 35.874C12.337 35.5249 13.0554 34.7461 13.7402 33.833C14.3781 32.9871 14.8279 31.5503 15.4053 30.3955C16.2714 30.1068 16.8958 29.7443 17.8223 29.5361C18.7891 29.3213 19.4403 29.422 20.3467 29.3213C20.7361 29.7644 21.0651 30.4761 21.4746 30.8252C22.2937 31.5369 23.1934 32.1008 24.2676 32.168C25.3418 32.2351 26.416 31.5637 27.0068 30.5566H27.0605V30.5029C27.3224 30.0464 27.5037 29.5496 27.4902 28.999C27.4768 28.4485 27.2015 27.8711 26.8457 27.4951C26.1407 26.7432 25.2411 26.5485 24.2676 26.4209C23.5156 26.3202 22.4683 26.5887 21.582 26.6357C20.8032 25.6085 20.0311 24.8364 19.3262 23.5205C18.9435 22.8088 18.8428 22.2046 18.5205 21.4795C18.7689 20.3113 19.259 19.0088 19.3262 17.9883C19.4067 16.7529 19.3597 15.6854 19.0039 14.7119C18.8226 14.2218 18.5339 13.7384 18.0908 13.3691C17.6611 13.0133 17.1039 12.7917 16.5332 12.7783C16.5131 12.7783 16.4996 12.7783 16.4795 12.7783ZM17.6074 25.5078C17.9163 26.0516 18.299 26.394 18.6279 26.9043C18.1445 26.9916 17.7753 26.9043 17.2852 27.0117C17.2046 27.0319 17.1509 27.099 17.0703 27.1191C17.171 26.8506 17.2986 26.6895 17.3926 26.4209C17.5 26.1053 17.5067 25.8234 17.6074 25.5078ZM23.9453 28.999C24.5227 29.0729 24.7308 29.1803 24.8047 29.2139C24.7913 29.2407 24.8248 29.234 24.8047 29.2676C24.5898 29.6234 24.5697 29.5966 24.4287 29.5898C24.3146 29.5831 23.8782 29.3481 23.4619 29.0527C23.5828 29.0594 23.8379 28.9856 23.9453 28.999ZM11.9141 31.6846C11.8201 31.8256 11.7395 32.1545 11.6455 32.2754C11.1218 32.9736 10.6384 33.2959 10.5176 33.3496C10.4974 33.3228 10.5511 33.3496 10.5176 33.2959H10.4639C10.2893 33.0475 10.3363 33.1482 10.4639 32.9199C10.5914 32.6917 10.9943 32.2284 11.6992 31.792C11.7529 31.7584 11.8604 31.7181 11.9141 31.6846Z" fill="#858585"/>
</svg>
