<svg width="170" height="119" viewBox="0 0 170 119" fill="none" xmlns="http://www.w3.org/2000/svg">
<path d="M165.461 31.9191H170V0.5625H138.666V5.10694H165.461V31.9191Z" fill="#616161"/>
<path d="M0 32.2978H4.53838V5.46672H31.3148V0.941223H0V32.2978Z" fill="#616161"/>
<path d="M31.3148 118.453H0V87.0968H4.53838V113.909H31.3148V118.453Z" fill="#616161"/>
<path d="M138.666 118.832H170V87.4756H165.461V114.288H138.666V118.832Z" fill="#616161"/>
<path d="M23.9589 14.535H13.3883V105.405H23.9589V14.535Z" fill="#616161"/>
<path d="M36.9878 14.535H54.9143V105.405H36.9878V14.535Z" fill="#616161"/>
<path d="M31.6358 14.6116H28.1753V105.481H31.6358V14.6116Z" fill="#616161"/>
<path d="M62.6294 14.478H66.0899V105.348H62.6294V14.478Z" fill="#616161"/>
<path d="M73.4646 14.535H70.0041V105.405H73.4646V14.535Z" fill="#616161"/>
<path d="M77.7952 14.6116H91.4481V105.481H77.7952V14.6116Z" fill="#616161"/>
<path d="M113.781 14.6116H103.399V105.481H113.781V14.6116Z" fill="#616161"/>
<path d="M95.3436 14.535H98.804V105.405H95.3436V14.535Z" fill="#616161"/>
<path d="M125.146 14.6116H121.686V105.481H125.146V14.6116Z" fill="#616161"/>
<path d="M141.692 14.535H145.152V105.405H141.692V14.535Z" fill="#616161"/>
<path d="M135.906 14.6116H128.928V105.481H135.906V14.6116Z" fill="#616161"/>
<path d="M149.18 14.6116H156.158V105.481H149.18V14.6116Z" fill="#616161"/>
</svg>
