<svg width="451" height="300" viewBox="0 0 451 300" fill="none" xmlns="http://www.w3.org/2000/svg">
<circle cx="214.5" cy="150" r="150" fill="#4D4D4D"/>
<g clip-path="url(#clip0)">
<path d="M386.5 293.496C385.507 302.544 333.351 301.784 333.43 293.495C334.423 284.447 386.579 285.207 386.5 293.496Z" fill="#4D4D4D"/>
<path d="M350.671 270.276L348.557 274.864L344.681 274.511L342.215 266.394L346.091 264.276L350.671 270.276Z" fill="#858585"/>
<path d="M363.979 280.842L364.062 284.039L358.072 284.392V280.51L363.979 280.842Z" fill="#858585"/>
<path d="M361.948 222.632L360.538 250.865L364.062 281.569L353.49 282.981L346.796 244.16L344.681 217.691L361.948 222.632Z" fill="#404040"/>
<path d="M378.509 212.398C378.509 212.398 382.738 240.278 373.928 249.454C365.119 258.629 353.138 274.863 353.138 274.863L344.681 264.276L366.176 241.337L361.948 225.809L344.681 217.692L347.5 198.281L372.871 197.928L378.509 212.398Z" fill="#404040"/>
<path d="M357.719 147.815C362.001 147.815 365.471 144.339 365.471 140.051C365.471 135.763 362.001 132.287 357.719 132.287C353.438 132.287 349.967 135.763 349.967 140.051C349.967 144.339 353.438 147.815 357.719 147.815Z" fill="#858585"/>
<path d="M364.414 141.815C364.414 141.815 364.767 152.756 366.529 154.167C368.29 155.579 360.186 161.579 360.186 161.579L354.9 153.109V145.345L364.414 141.815Z" fill="#858585"/>
<path d="M360.891 156.638L365.169 150.168L367.586 153.462L371.109 163.343L368.29 201.811L351.729 202.164L349.615 158.049L354.9 151.697L360.891 156.638Z" fill="#E6E6E6"/>
<path d="M342.919 159.108L340.1 158.755C340.1 158.755 339.396 159.108 339.043 161.578C338.691 164.049 334.462 185.929 334.462 185.929L340.1 212.751L346.443 204.281L342.567 189.459L346.443 174.636L342.919 159.108Z" fill="#404040"/>
<path d="M378.862 158.755H380.976L386.262 187.341L381.328 209.575L376.395 201.458L377.804 192.635L377.1 184.871L374.633 180.283L378.862 158.755Z" fill="#404040"/>
<path d="M347.5 273.452C347.5 273.452 349.614 272.746 349.614 274.158C349.614 275.569 348.205 279.804 348.205 279.804C348.205 279.804 350.319 292.862 347.148 292.156C343.976 291.451 341.51 285.451 341.157 283.686C340.805 281.922 339.043 272.746 339.043 272.746C339.043 272.746 336.224 266.041 337.986 265.688C339.748 265.335 344.681 263.923 344.681 263.923C344.681 263.923 341.862 272.746 347.5 273.452Z" fill="#404040"/>
<path d="M357.719 284.392C357.719 284.392 363.357 280.863 364.414 283.686C365.115 285.746 365.588 287.876 365.824 290.039C365.824 290.039 367.233 294.627 361.595 293.921C355.957 293.215 356.662 293.215 356.31 291.097C355.957 288.98 357.719 284.392 357.719 284.392Z" fill="#404040"/>
<path d="M362.3 140.051L360.89 139.698C360.89 139.698 359.833 133.698 357.367 134.404C354.9 135.11 348.557 135.816 348.557 132.993C348.557 130.169 354.548 127.699 358.072 128.052C361.595 128.405 367.586 129.463 367.233 134.757C366.881 140.051 364.607 145.2 364.607 145.2L364.423 142.062L362.3 140.051Z" fill="#404040"/>
<path d="M354.9 160.873L360.891 156.638L354.9 151.697L352.82 154.197L354.9 160.873Z" fill="#E6E6E6"/>
<path d="M366.176 160.52L360.891 156.638L365.119 150.285L367.586 153.462L366.176 160.52Z" fill="#E6E6E6"/>
<path d="M340.453 158.755L351.729 154.167L354.372 152.226L362.3 187.341L367.586 171.46L366 151.167L380.623 158.755L375.69 182.753L374.985 191.929L377.1 199.34C377.1 199.34 384.5 204.634 382.033 210.28C379.566 215.927 376.747 216.28 376.747 216.28C376.747 216.28 364.767 204.987 364.062 202.163C363.357 199.34 362.3 194.399 362.3 194.399C362.3 194.399 356.31 216.986 349.262 216.633C342.215 216.28 342.215 208.869 342.215 208.869L343.976 201.105L346.795 192.988L345.386 179.577L340.453 158.755Z" fill="#404040"/>
<path d="M322.257 72.1394H76.6051V229.706H322.257V72.1394Z" fill="#858585"/>
<path d="M315.232 91.9023H83.6292V151.968H315.232V91.9023Z" fill="#B5B5B5"/>
<path d="M190.217 100.578H141.238V103.394H190.217V100.578Z" fill="#E6E6E6"/>
<path d="M216.872 110.85H141.238V113.666H216.872V110.85Z" fill="#404040"/>
<path d="M202.878 120.527H141.238V123.343H202.878V120.527Z" fill="#E6E6E6"/>
<path d="M177.223 130.168H141.238V132.984H177.223V130.168Z" fill="#E6E6E6"/>
<path d="M195.548 139.808H141.238V142.624H195.548V139.808Z" fill="#E6E6E6"/>
<path d="M124.912 99.5774H118.915V105.584H124.912V99.5774Z" fill="#E6E6E6"/>
<path d="M124.912 109.254H118.915V115.261H124.912V109.254Z" fill="#404040"/>
<path d="M124.912 118.932H118.915V124.938H124.912V118.932Z" fill="#E6E6E6"/>
<path d="M124.912 128.609H118.915V134.615H124.912V128.609Z" fill="#E6E6E6"/>
<path d="M124.912 138.286H118.915V144.293H124.912V138.286Z" fill="#E6E6E6"/>
<path d="M282.844 113.259H262.853V133.281H282.844V113.259Z" fill="#E6E6E6"/>
<path d="M315.232 160.31H83.6292V220.376H315.232V160.31Z" fill="#B5B5B5"/>
<path d="M135.241 165.649H129.244V171.655H135.241V165.649Z" fill="#E6E6E6"/>
<path d="M124.912 165.649H118.915V171.655H124.912V165.649Z" fill="#404040"/>
<path d="M220.602 178.784C218.774 175.684 216.237 173.064 213.201 171.137C210.165 169.211 206.715 168.034 203.136 167.703C199.557 167.372 195.951 167.896 192.614 169.233C189.277 170.569 186.304 172.68 183.94 175.392L182.478 174.113C185.044 171.169 188.27 168.877 191.893 167.426C195.515 165.974 199.43 165.405 203.315 165.764C207.2 166.124 210.944 167.401 214.24 169.493C217.535 171.584 220.288 174.429 222.272 177.794L220.602 178.784Z" fill="#E6E6E6"/>
<path d="M221.516 204.107L219.906 203.022C222.291 199.459 223.622 195.292 223.746 191.004C223.869 186.715 222.779 182.479 220.602 178.784L222.272 177.794C224.636 181.805 225.819 186.404 225.686 191.06C225.552 195.716 224.107 200.239 221.516 204.107V204.107Z" fill="#404040"/>
<path d="M182.681 206.815C178.669 202.328 176.434 196.526 176.396 190.502C176.359 184.479 178.522 178.65 182.479 174.113L183.94 175.392C180.296 179.572 178.303 184.942 178.337 190.49C178.372 196.039 180.431 201.384 184.126 205.518L182.681 206.815Z" fill="#404040"/>
<path d="M201.046 215.038C197.58 215.035 194.153 214.302 190.989 212.885C187.825 211.468 184.994 209.4 182.681 206.815L184.126 205.518C186.434 208.101 189.301 210.12 192.507 211.424C195.713 212.727 199.174 213.28 202.626 213.039C206.078 212.798 209.429 211.77 212.424 210.034C215.418 208.299 217.978 205.9 219.906 203.022L221.516 204.107C219.263 207.473 216.217 210.23 212.646 212.137C209.076 214.043 205.092 215.039 201.046 215.038Z" fill="#404040"/>
<path d="M282.844 178.664H262.853V198.685H282.844V178.664Z" fill="#E6E6E6"/>
<path d="M138.073 191.678H118.082V211.7H138.073V191.678Z" fill="#E6E6E6"/>
<path d="M322.152 72H76.5V82.4521H322.152V72Z" fill="#363636"/>
<path d="M84.2553 79.2809C85.3236 79.2809 86.1896 78.4136 86.1896 77.3437C86.1896 76.2738 85.3236 75.4065 84.2553 75.4065C83.1871 75.4065 82.3211 76.2738 82.3211 77.3437C82.3211 78.4136 83.1871 79.2809 84.2553 79.2809Z" fill="white"/>
<path d="M91.5973 79.2809C92.6656 79.2809 93.5316 78.4136 93.5316 77.3437C93.5316 76.2738 92.6656 75.4065 91.5973 75.4065C90.529 75.4065 89.663 76.2738 89.663 77.3437C89.663 78.4136 90.529 79.2809 91.5973 79.2809Z" fill="white"/>
<path d="M98.9394 79.2809C100.008 79.2809 100.874 78.4136 100.874 77.3437C100.874 76.2738 100.008 75.4065 98.9394 75.4065C97.8711 75.4065 97.0051 76.2738 97.0051 77.3437C97.0051 78.4136 97.8711 79.2809 98.9394 79.2809Z" fill="white"/>
</g>
<defs>
<clipPath id="clip0">
<rect x="76.5" y="72" width="310" height="228" fill="white"/>
</clipPath>
</defs>
</svg>
